<svg width="875" height="840" viewBox="0 0 875 840" fill="none" xmlns="http://www.w3.org/2000/svg">
<path opacity="0.1" d="M460.139 0L454.133 4.222L450.725 0.489384L449.264 1.78262L448.125 1.94743L446.992 1.46309L446.505 1.62789L443.096 1.13599L442.934 1.3008L443.096 3.08341L442.769 5.35797L438.714 6.81604L438.387 7.14314L437.413 6.49651H436.28L435.63 6.16941L435.143 5.52278L434.657 5.19568L432.709 5.84231L429.136 7.78976L424.266 2.75631L426.054 12.0118L424.594 12.6584L420.049 13.1478L418.75 15.0952L419.724 16.7156L420.049 20.9376L421.832 23.3694L421.023 24.0236L420.371 24.8325L421.185 31.8134L422.319 33.9155H417.449L417.614 32.1329L415.989 31.968L415.667 33.1065L413.881 33.5959L414.206 34.2425L412.907 35.054H411.284L409.337 33.1065L408.198 34.0802L407.551 33.2688L407.224 33.7607L405.928 34.5696H403.981L403.656 33.9154L402.355 33.7607V33.4336L401.868 33.2687L401.381 32.6221L400.085 31.8132L399.761 31.9679L398.787 31.3213L398.3 30.6746L397.326 30.8395V31.159L398.46 31.9679L399.92 33.9154L400.734 34.4073L402.682 36.517L400.085 38.6293L401.708 39.1111L401.381 40.8963L401.546 41.3856L402.195 41.5504L402.033 41.87L402.195 42.3594H402.682V42.6789L403.329 43.6526L403.494 44.4717L404.467 45.1183L404.63 45.4454L405.117 52.2615L401.708 55.0179L396.677 55.3374V59.5594L399.598 60.3683L399.76 61.834L399.436 62.1535V62.8077L399.923 63.1272L399.76 63.6165L399.923 63.7814L399.436 65.0746L399.76 65.7288L399.598 66.2106L401.383 71.4063L403.169 74.3275L405.766 73.0292L406.577 74.6546L405.603 75.7881L407.064 85.5253H420.049L420.373 86.1745L420.049 86.3393L420.211 86.9859H419.886L419.562 87.7999L418.75 89.0956L418.91 89.9071L418.588 90.721L418.91 90.8808L418.588 91.53H418.423V92.3414L418.101 93.1554L418.263 93.4774L418.101 93.6422L418.263 94.938L418.101 95.2626L418.263 96.3986L417.776 98.024L416.64 98.8329V100.78L415.988 101.267L414.693 101.754L414.528 102.079L413.232 104.188H412.907L412.58 104.675L411.606 107.921L423.619 110.518L422.97 117.334L416.962 115.711L415.666 115.064L414.041 114.413L413.554 114.899L414.206 117.334L414.041 118.794L411.933 122.04L410.797 121.88L410.632 121.553L409.986 121.229L407.876 121.715L407.711 121.553L407.224 121.88L406.415 121.553L405.928 122.202L406.25 123.828L405.763 124.961L403.493 125.123L401.546 126.749L400.572 129.83L401.257 129.967V130.071L395.216 129.018L394.564 129.992L392.129 129.018L388.399 129.183L387.75 128.209L383.043 126.749L381.907 127.395L377.362 124.315H375.252L373.304 125.123L372.168 124.474L372.006 126.422L372.168 127.071H371.519L370.87 127.395L370.705 128.209H370.218L370.058 128.856L370.545 129.183L370.87 130.157L371.844 130.479L371.679 130.966L371.357 131.131L371.192 131.453L371.519 132.264L371.357 132.426L370.218 132.264L370.058 132.913H370.545L371.519 133.887L371.844 134.698L371.519 135.348L371.679 136.159L371.519 137.133L366.325 139.243L364.377 142.651L364.215 146.059L363.241 146.71L360.482 145.25L357.723 145.409L356.1 146.223L348.147 145.572L346.199 144.598L344.414 146.223L339.058 145.085V149.954L338.408 151.901L338.931 152.365V152.381L338.571 152.067L335.649 151.902L331.105 150.281L328.021 146.873L328.995 145.572L327.534 142.492L325.099 139.243L324.125 138.597L326.073 134.861L320.23 134.215L319.743 134.375L317.308 136.487L308.868 134.053L306.596 134.702L303.025 132.267L302.052 130.967L301.078 131.294L296.858 130.967L296.371 130.644L292.962 129.833L292.638 131.618L293.287 132.592L292.638 136.162L291.826 136.322L291.664 136.809L291.826 138.434L291.664 139.243L291.826 140.544L286.308 140.869L283.227 139.73H282.412L279.491 142.491L278.357 142.651L275.436 142.005L275.109 142.491L275.596 142.816L276.41 143.952L279.166 147.36L280.305 148.334L283.873 148.494L284.2 148.818L285.661 148.172L288.742 148.331L288.256 148.98L288.096 149.632L288.256 150.279L288.096 150.766L286.47 151.415L284.2 155.31L282.74 156.935L281.279 157.744L280.952 158.718L279.653 160.503H278.679L278.03 160.99L277.87 161.317L278.03 162.126L278.192 167.159L278.844 168.133L279.331 170.727L280.792 172.837L283.226 173.81L283.873 174.462L285.009 176.41V178.679L284.36 179.331L283.226 179.977L279.166 181.113L277.383 181.925L276.569 182.574L274.949 183.226L273.648 183.385L272.349 184.035H271.7L267.967 185.495L266.671 188.741L265.697 188.903L264.237 190.201L263.585 191.337L265.857 194.096L269.428 194.423L270.402 194.91H271.213L272.027 196.693L271.7 197.18L267.967 199.614L266.993 199.779L266.019 201.562L266.671 202.86L267.158 204.648L266.993 205.621L265.532 207.569L265.046 209.676L263.263 212.597L260.988 217.141L259.367 217.793L258.716 220.227L257.093 220.714L255.959 219.413V218.115L250.438 215.031L249.789 213.571L248.328 216.332L246.707 217.141L244.433 222.334L244.273 223.795L243.299 225.418L239.726 226.556L237.291 226.069L235.021 225.256L233.396 225.418L231.613 224.444L229.987 225.742L227.23 225.583L227.717 226.229L228.691 229.15L229.665 230.611L228.691 231.425L228.204 232.558L227.23 233.207L227.877 235.155L228.039 236.94L227.23 239.215L228.204 242.623L225.283 245.217L223.17 247.651L224.309 254.629L223.335 255.281L223.822 255.768L222.848 256.742L222.361 256.415L221.547 256.577L208.727 257.228L205.966 257.064L203.858 257.875L201.424 259.336L200.937 260.636L201.583 261.932L202.07 262.419L201.424 264.367L199.311 265.34L198.175 265.018L195.903 264.853L195.094 265.505L194.607 267.288L194.442 270.533L194.12 270.696L193.306 271.669H192.659L190.871 272.643L189.086 272.481L187.138 273.455L186.164 274.915L184.216 274.428L181.947 274.591L181.782 273.782L180.973 273.13L179.347 271.182L178.211 271.02L177.399 268.426L176.75 267.939L176.59 267.612L174.156 266.966L173.991 264.853L171.556 265.665L171.069 266.314L170.095 266.152L167.985 267.453L166.365 268.748L162.305 268.261L160.357 268.099L157.6 268.748L156.786 268.099L155.812 268.261L154.027 269.887L152.731 270.047L151.106 271.834L149.81 271.67L148.836 273.13L147.697 273.617L147.21 274.428L145.587 275.564L146.074 279.624L145.749 279.946L145.262 281.407L144.126 282.705L143.152 285.467L142.341 286.113L138.933 287.736L138.123 287.574L137.472 287.087L135.524 284.98L134.388 285.302L131.953 287.249H130.493L129.846 288.388L129.032 288.548L128.058 289.034L126.11 288.71L125.464 289.521L123.676 290.657L122.702 290.982L121.403 290.17L119.293 289.848L118.16 288.71L115.56 288.548L115.398 290.171L114.911 290.822L112.804 291.631L111.83 292.443L111.503 293.416L111.016 295.526L110.691 296.824L107.934 297.96L106.796 299.586L105.335 300.232L105.173 300.719H104.686L104.199 302.02L104.361 305.101L103.874 306.889L103.387 307.211L99.4918 308.349L97.5442 309.81L95.4342 308.022L88.4575 309.81L83.9104 312.079L79.8527 313.378L77.2583 314.514L77.4181 317.435L77.7452 318.086L76.7714 321.167L75.9573 321.981L75.4704 322.141L73.8499 323.115L73.1981 322.79L71.7374 322.955L70.9283 324.903L68.9806 325.225L67.6796 325.711L66.8681 326.363L64.7581 325.549L63.6245 324.738L63.1376 323.115L60.3758 322.141L59.0774 320.681L57.9412 320.521L56.9674 321.167L54.8599 321.817L54.6951 322.141L53.2343 323.442L52.2605 322.303H51.6113L49.9907 321.981L49.0169 322.141L47.7159 322.303L46.5823 323.277L45.7682 324.575L45.6084 325.549L45.2813 327.334L44.4697 328.633H43.9828L43.6607 329.119L42.3597 330.093L41.3859 330.255L40.412 330.58L38.7915 329.931L38.1398 331.067L38.6267 332.203L39.1136 332.527L39.6005 335.124L39.1136 336.26L38.6267 336.747L37.3308 337.234V339.019L36.679 343.076L36.1921 343.725L35.0559 344.374L33.2706 344.861L32.6213 345.51L32.7836 346.809L32.6213 348.107L33.4354 350.866L33.1083 352.002L32.6213 352.651L32.4615 354.436L31.9746 355.085V356.384L31.3229 358.007L31.6475 359.467L31.4877 361.577L31.6475 364.173L31.1606 364.985L30.5138 364.498L29.6998 364.336L27.7521 371.801H27.2652L27.1054 371.152L25.3175 368.393L24.8306 368.068L24.3436 367.906L23.0452 365.472H21.2623L21.0975 363.2L20.1237 362.551L20.7754 362.064L23.5321 357.682L24.1839 354.923L20.9352 353.787L18.3408 353.949L17.3669 353.141L16.066 352.489L11.1967 353.141L10.55 355.248H10.3852L9.73597 355.735L8.92444 355.248L8.2752 355.41L5.51598 355.248L2.27237 354.601V355.735L0.486923 355.897L0 356.221V356.383L0.159787 357.035L3.40846 362.713L3.24615 365.958L2.75923 367.257L1.78538 367.906V368.555L1.29846 369.042L1.13363 369.691L0.973846 371.314L1.46077 372.288L2.43461 372.45L2.75923 372.774L4.86923 373.099L6.81691 372.288L8.43744 372.774L9.73844 373.748L12.9846 375.371L12.8198 375.696L15.5815 375.049L14.9323 376.996L12.9846 378.13L15.9061 379.431L17.0423 379.591L17.689 379.104L18.99 380.889L24.8305 378.617L25.4797 379.915L25.8043 379.753L26.9405 381.538L27.2651 382.999L28.7259 385.108H31.4876L34.8961 387.867L36.0297 388.354L36.3568 388.192L37.0035 388.354L43.0089 391.6L43.8204 391.275L44.1476 390.788L46.4173 388.679L47.3912 389.003L47.8781 388.841L49.1766 389.328L51.2866 389.652L55.0196 387.543L60.216 393.061H61.9988L64.5983 394.034L71.4152 395.819L82.2872 400.688L80.6667 401.662L80.5019 403.609L74.4965 409.938V413.509L74.1719 414.482L74.4965 415.943L74.3367 417.241L73.8498 417.566V418.377L74.4965 420L74.3367 421.299L74.8236 421.461L76.9311 421.948L77.7452 421.623L79.3657 421.298L80.8264 422.597L81.3134 422.759L83.1013 422.921L83.748 424.382L84.0751 424.542L85.2088 424.706L85.858 424.219L86.3449 425.028L86.6695 425.193L88.6172 424.869L89.591 424.057L90.5649 425.842L91.5387 426.005L91.7011 425.68L92.3528 425.842L92.9995 426.978L94.6226 427.627L96.7351 429.413L96.8949 430.062L94.3005 431.847L93.8136 432.496L93.6488 433.794L94.1357 436.391L92.188 439.961L91.8659 440.123L89.7534 439.637L89.2665 440.286L87.9705 443.207L86.0229 442.882L85.5359 443.207L84.7219 444.83L84.5621 447.589L84.8842 448.887L84.235 450.834L84.3973 452.295L85.6957 453.269V453.918L85.2088 454.405L84.5621 456.028L83.4234 457.813L82.6144 458.462H82.2872L80.8265 459.111L80.6667 460.734L80.0149 461.545L77.9049 462.681L77.0934 462.519L75.9572 463.168L74.9834 463.331L74.1719 463.003L72.389 462.681L71.7373 461.708H71.2504L70.1142 460.082V459.273L69.4675 458.3L69.6273 457.488L69.3027 456.514L68.4936 456.352L68.0067 457.326L67.5198 457.488L66.7057 458.3H66.059L64.2711 459.436L62.1637 460.082L61.1898 461.543L60.5381 461.87L57.6165 460.896L56.1558 460.734L54.3729 461.546H52.585L51.9383 461.87L51.2866 462.519L49.9906 462.844L49.8258 463.818L47.3912 466.09L46.5822 466.412L45.6083 466.252L39.2784 466.412L36.3568 467.063L28.7259 468.037L28.4012 468.359L22.0713 472.581L20.6105 473.879L23.3697 476.149L24.6707 475.34L26.1315 478.261L27.2651 479.235L28.7259 480.044L30.0269 480.858L32.2966 485.726L32.7835 487.998L34.5689 489.621L34.4091 491.893L34.8961 493.676L39.1135 495.464L42.1999 495.301L43.6606 496.275L44.6345 497.898L45.7681 500.657V502.28L44.9566 504.714L44.6345 507.473L43.0089 510.394L40.7391 511.855L39.925 512.828V513.964L40.7391 516.886L43.1737 521.914L45.6083 527.756L45.4435 532.138L46.255 534.25L46.9043 535.224L49.1766 538.794L49.3389 543.014L48.8519 545.77L49.0168 548.856L46.9042 554.047V554.534L48.0429 556.808L50.6373 560.376L54.5327 564.111L56.9673 565.896L58.2683 569.626L59.0773 569.954L62.8104 572.712L63.4596 573.686L65.0852 571.739L66.2188 571.414L67.8419 571.574L69.6273 573.035L70.7634 571.739L73.6849 567.357L75.7975 564.758H77.418L80.1798 566.059L80.8265 566.218L84.0751 568.493L86.0228 572.226L87.8057 573.686L90.2403 574.335L92.6749 575.796H93.1618L93.3266 575.469L96.2482 573.686L101.439 572.712L102.578 573.199L104.039 574.335L111.83 578.555L120.429 589.588L121.728 590.402L123.676 589.915L124.977 588.941L128.058 587.967L130.82 588.292L129.681 590.726L130.006 593.97L131.953 595.757L132.767 597.865L135.362 600.464L136.176 600.951L139.906 598.192L140.718 598.029L145.427 600.626L149.323 599.812L149.969 600.786L152.404 605.495L153.865 606.955L155.812 607.767L159.708 608.416L161.818 609.39L162.305 610.85L162.142 613.444L162.305 615.557L162.629 617.666L163.443 618.478L163.116 621.074L161.331 622.535L158.247 623.995L156.462 624.482L155.653 625.456L155.001 625.943L154.838 627.728L155.325 628.05L155.812 630.484L154.192 633.57L154.839 637.952L155.653 641.036V643.47L157.273 644.444L160.195 646.716L162.142 647.365L166.2 649.472L169.286 653.045L170.747 655.314L173.017 660.023L172.53 662.617L173.669 664.405L175.289 665.216L175.451 665.703L177.237 668.138L177.399 669.76L178.373 671.059L178.86 673.98L180.321 676.09H181.294L186.164 680.796L187.462 683.065V684.039L188.276 686.474L188.763 696.051L188.598 697.671L187.949 699.619L187.462 704.001L188.923 705.788L188.598 709.521L190.059 709.683L192.658 709.356L195.253 710.33L195.58 715.85L195.902 717.633L197.363 717.473L203.858 717.633L204.504 717.146L207.753 713.738L213.918 707.895L215.703 708.06L218.3 709.356L229.664 715.685L232.586 716.012L239.563 715.685L240.864 714.876L244.759 711.468L246.22 712.277L248.167 714.225L249.463 716.172L250.115 718.771L251.089 720.394L254.01 723.64L256.118 725.263L257.254 726.396L257.906 725.263L259.039 723.962L265.045 721.855L269.427 721.041L273.16 721.855L274.461 722.988L276.082 723.962L276.731 725.75L277.87 727.697L279.33 728.344H280.464L283.548 726.561L285.982 724.614L287.608 723.962L290.043 724.289L292.964 723.962L296.86 724.614L297.506 726.074L295.559 729.482L294.912 730.131L294.747 731.43L297.669 738.081L299.781 741.329L300.915 742.141L303.349 741.489L308.219 737.759L309.679 734.673L310.815 733.539L312.763 732.566L315.522 732.89L317.797 732.726L322.502 733.053L324.449 734.673L328.182 737.107L329.643 739.219L331.431 743.923L332.405 745.062L334.188 746.685L334.839 746.358L335.973 745.062L338.248 741.167L340.196 734.026L341.491 731.752L343.115 729.482L344.088 727.21L344.575 721.206L344.9 720.067L348.308 716.986L350.418 715.85H351.555L354.476 716.824L356.748 717.311L359.345 716.659L363.403 714.712L365.188 713.251L367.623 708.71L370.707 706.6L374.927 703.027L378.66 699.132L380.283 694.75L381.419 693.29L383.367 691.342L388.236 687.934L389.047 687.612L390.184 686.638L390.346 686.314L390.184 685.013L391.807 683.066L393.592 681.445L394.891 677.55L395.053 676.09L394.404 674.302L392.78 667.651L393.267 667.164L395.215 667.651L399.11 666.837L401.545 666.025L404.467 666.19L407.875 666.999L409.498 668.46L411.77 670.894L412.907 671.381L417.776 670.572L419.883 670.732L420.048 672.033L418.75 676.901L416.962 680.956V682.744L417.449 685.5L419.396 692.481L419.237 693.127L418.1 694.101L413.718 695.402L412.907 696.535L412.093 697.185L411.446 696.376L409.498 695.402L404.789 699.619L401.867 702.705L402.032 703.838L401.221 705.299L398.946 707.733L396.998 708.06L395.864 708.547L393.43 712.764L394.404 717.471L395.864 720.879L396.024 722.015L397.972 723.475L402.841 724.773L404.954 723.8L405.927 722.826L406.901 722.339L414.04 722.179L418.75 724.449L422.645 726.721L425.24 727.535L426.054 728.831L425.726 730.129L425.08 731.43L427.352 734.673L429.135 735.971L430.274 737.272L430.436 738.733L430.274 739.379L429.135 740.353L428.813 741.002L427.514 742.3L427.187 742.95L428.001 747.818L428.648 749.603L432.708 753.011L435.305 754.472L437.899 755.446L439.038 756.582L439.847 757.88L441.635 757.069L443.096 757.393L444.07 760.155L443.096 760.801L443.42 763.563L444.07 764.696V766.319L443.256 767.293L443.096 768.104L442.609 768.591L440.821 769.405L440.334 770.539L441.96 774.274L445.203 777.355L446.342 779.464L446.504 781.249L447.151 782.385L448.939 784.498L453.808 787.741L454.295 788.393L455.429 793.583L458.35 798.452L459.324 798.29L461.759 797.156L466.141 797.643L470.361 797.478L472.309 797.803L472.795 798.29L474.743 798.617H478.966L483.021 797.965L486.27 799.591L491.948 801.698L493.573 801.86L497.956 801.373L499.089 802.671L496.817 807.867L495.681 809.328L495.356 810.788L495.843 812.409L496.982 814.196L497.304 815.17V816.144L495.843 819.065L495.681 820.039L496.008 820.848L496.655 821.499L496.495 824.907L495.843 826.69L494.06 830.263L496.008 830.75L497.631 832.21L501.851 833.344L504.121 833.184L507.529 834.966L508.99 835.453L514.184 840L516.294 839.835L519.053 838.053L522.462 836.265L525.71 836.752L526.357 836.105L526.684 835.291L527.171 830.75L526.844 828.802L525.383 826.041L525.223 824.256L531.875 823.769L534.31 824.58L535.449 825.229L536.422 824.093L540.805 822.308L544.373 822.146L548.431 821.499L551.352 821.659L552.978 820.199L553.952 816.953L555.412 815.492L558.656 815.33L560.441 815.657L562.229 816.466L563.69 817.927L564.177 818.091L564.824 817.764L566.125 816.466L566.612 815.657L568.881 816.144L571.481 817.44H572.615L574.562 816.144L575.863 815.817L578.458 815.657L581.866 816.631L584.301 816.144L589.332 815.657L592.091 814.518L595.175 813.869H597.61L598.262 813.545L599.071 812.249L602.479 804.781L603.777 803.321L605.725 802.025L607.348 801.538L608.322 799.426L608 797.316L608.487 796.669L610.435 796.018L612.055 796.505L613.191 797.316L614.49 797.643L616.765 796.342L617.898 795.044L618.547 793.748L619.034 791.961L619.686 791.474L621.307 791.149L623.417 790.175L623.904 789.526L624.715 786.932L624.555 785.472L623.741 783.684L624.068 779.789L623.254 778.004L624.555 774.434L623.581 771.675L621.794 770.539L621.147 770.379L617.738 767.131V765.183L618.547 763.236L626.176 759.668L627.312 758.854L627.15 757.234L625.042 751.878L625.689 750.253L632.506 744.897L633.642 744.41L635.103 744.897L636.242 744.088H640.297L644.679 745.871L647.114 743.761L648.574 741.002L650.684 740.68L654.417 743.115L657.179 742.301L658.153 741.167L659.614 740.68L660.423 741.002L663.996 744.897L665.457 745.871L669.999 746.195L672.761 746.036L676.004 743.115L678.117 742.628L680.224 742.787L683.473 740.353L686.881 739.22H688.177L689.803 740.029L693.046 740.515L697.266 744.41L698.403 746.036L699.214 747.496L700.675 748.305L701.976 748.47L707.819 750.74H708.628L709.44 749.604L710.413 748.792H713.175L716.256 749.279L718.044 748.63L719.827 749.117L720.314 750.09L722.427 752.365L724.047 753.174L724.696 752.687L726.969 748.957L725.67 747.169L727.131 747.332L727.456 747.01H727.943L729.403 745.222L729.566 744.575L729.243 743.923L727.456 741.976L726.157 741.327V740.68L726.482 740.353L729.403 738.733L729.728 737.107L728.592 728.996L729.403 726.561L732.325 726.396L733.461 727.208L734.435 728.509L736.22 728.996L736.869 729.483L737.194 731.265L737.034 733.213L737.356 735.485L738.168 736.785L741.252 739.379L741.738 740.68L741.252 742.301L741.416 744.735L743.037 747.496L744.985 747.983L747.746 746.358L749.207 746.523L749.854 746.036L752.451 742.628L758.294 743.115L761.215 742.141L762.841 741.002L765.276 739.707H766.736L769.006 738.893L770.467 735.812L771.119 735.325L775.501 734.838L776.959 734.186L777.768 732.239L779.716 729.642L780.535 728.996L781.182 728.182L781.664 726.883L779.881 724.127L779.396 722.988L778.422 722.339L777.286 720.232L776.148 718.931L776.313 717.146L776.64 716.337V714.39L774.847 711.304L775.174 710.655V709.843L776.475 708.22L779.561 706.273L782.802 705.461L784.266 706.113L787.187 708.383L789.619 710.982L791.402 713.416L793.35 715.036L796.598 716.659L798.219 717.957L797.899 720.067L800.331 719.745L802.933 717.957L804.881 717.146L804.062 714.549L805.201 713.089L806.502 711.955L807.311 711.628H808.776L810.879 710.008L812.672 704.974L814.774 701.891L815.593 701.566L818.834 702.053L820.944 701.404L822.565 700.43L823.704 698.645L828.57 696.698L832.958 697.185L834.096 696.863L844.644 692.641L847.885 690.369L849.995 688.586L851.296 687.125L853.408 685.987L852.599 683.066L852.916 675.276L852.434 672.679L851.46 671.381L850.159 671.706L848.539 673.006L847.073 673.166L843.834 671.381L840.258 668.625L840.094 666.999L840.586 665.539L841.56 665.217L842.696 663.269L842.042 659.209L839.447 658.073L837.992 654.341L838.146 653.045L837.992 652.558L838.965 650.77L840.421 649.31L841.232 647.69L840.421 646.229L835.225 644.281L834.416 642.821L835.07 641.196L836.853 638.112L837.172 637.952L837.991 636.651V636.005L836.69 635.518L836.526 633.243L837.018 630.971L837.335 630.484L839.447 629.348L839.12 628.862L836.691 627.563L835.879 626.754L835.387 625.454L836.044 623.833L835.387 622.695L835.07 622.208L834.743 620.912L835.07 619.124L834.743 618.8L832.303 617.826H831.01L827.434 618.965V617.826L826.787 615.719L825.814 614.905L825.005 613.444L824.677 613.282L824.84 612.149L826.306 609.874L826.46 608.741L826.141 607.767L825.814 607.44L825.979 607.115L828.089 606.953L829.227 606.466L830.036 605.655L830.356 604.519L831.492 604.846L832.631 604.519L833.604 603.22L834.413 603.058L834.578 602.734H833.932L833.44 601.925L833.605 600.299L833.277 600.137L832.958 599.326L833.123 597.378L831.822 597.216L830.683 597.703L829.544 597.056L829.227 596.405L829.382 595.596L828.254 596.083L826.95 595.596L825.649 595.431L824.193 594.622H822.728L822.246 592.834L822.411 592.347L824.193 591.214L824.358 590.887L824.678 589.267L825.814 587.806L825.005 584.233L825.167 581.964L824.678 581.15L824.84 579.529L824.031 577.582L823.539 577.255L821.591 577.095L820.136 575.794L818.835 576.121L817.696 575.148L816.403 575.47L812.18 574.82L808.777 577.417L807.958 578.391L806.829 580.825L805.855 580.338L805.363 579.042L803.907 578.878L802.769 579.529L802.114 579.364L801.468 579.851L801.141 579.689L800.986 578.878H800.659L800.332 578.391L798.219 576.768L797.091 576.608L796.117 575.307L794.816 574.983L792.703 573.847L794.004 572.873L795.789 572.226L796.436 571.739V570.601L796.926 568.004L796.436 567.03L796.117 565.245L796.599 564.109L797.899 562.811L798.219 562.002L797.899 560.704L798.219 560.217L800.332 559.081L801.96 557.942L802.279 557.296L802.769 557.134L803.253 556.322L804.881 555.508L805.036 554.375L805.363 553.888L805.036 552.1L805.201 551.126L806.502 550.804L807.311 549.019L804.062 549.179L803.253 548.692L802.769 545.611L802.934 544.638L803.58 543.177L805.363 543.501L806.664 543.337L807.149 543.664L808.285 543.502L810.232 542.363L812.992 541.067L814.455 540.743L815.429 539.607H816.24L817.376 538.795L818.835 538.308L820.618 537.335L819.971 535.874L820.136 533.764L821.272 532.139L820.136 531.492L819.809 531.006L819.971 529.705L819.162 529.545L818.188 528.896L819.644 521.428L820.136 520.781L819.644 518.994L820.136 517.86L820.945 517.373V517.211L822.41 517.533L822.565 516.887L822.246 516.724L821.437 514.939L822.892 515.913L824.031 516.724L825.814 517.046L826.306 517.533L827.762 518.185L828.089 519.321L829.547 519.968L829.709 520.295L830.848 521.268L832.149 521.755L834.251 522.242L834.578 523.54L835.39 524.349L835.225 524.676L835.552 525.81L835.39 526.461L836.364 530.192L837.018 531.005L837.338 531.979L837.173 533.44L837.665 534.9L839.283 534.251L840.586 533.927L841.068 534.251L841.723 535.225L842.205 535.547L843.836 535.874L844.964 534.9L845.129 534.414L844.81 533.764V532.953L845.292 532.304L848.541 532.139L849.025 532.466L849.188 532.791L850.161 532.466L850.808 532.791L851.627 532.626L852.436 531.165L853.248 530.678L853.895 528.084L855.842 526.624L857.306 526.137L858.444 526.297L859.738 525.65L861.039 525.488L862.013 525.001L862.66 524.349L863.314 524.19L864.443 525.488L868.018 526.297L868.338 524.349L869.639 520.619L870.777 520.454L872.395 519.159L873.207 516.886L873.699 516.4L874.026 515.586L873.369 514.452V514.125L873.861 513.803L875 512.018L874.343 510.395L874.508 509.908L871.424 505.526L871.914 503.092L871.587 502.118L872.398 500.658L872.725 500.493L872.887 499.684L872.398 499.197L868.829 497.899L867.691 498.224L866.235 497.737L864.934 496.598L864.607 495.465L864.769 495.138L864.122 494.004L863.633 493.677L861.365 494.651L859.572 494.164L859.253 493.677L857.625 493.355L857.306 491.57L856.497 491.083L856.332 490.434L854.869 489.46L853.411 489.135L852.921 489.46L851.947 489.295L850.973 489.46L850.488 489.135L849.999 487.999L849.025 487.675L848.051 487.835L846.912 488L846.758 488.486L846.103 488.973L845.292 489.135L844.81 488.649L843.508 487.999L842.208 486.374L842.043 484.105L842.862 482.157V481.346L842.208 480.21L842.37 479.558L842.208 479.071L841.724 478.584L840.423 478.097L840.749 476.477L841.723 475.99L842.37 474.854L842.535 474.043L841.888 473.229L841.561 472.095L840.75 471.122L839.449 470.959L838.802 471.446L838.475 471.281L837.339 471.609H836.527L834.744 470.795L834.417 471.446L834.098 471.608L833.279 471.281L832.632 470.635L831.823 468.687L830.849 467.551L831.496 466.578L831.176 466.253V465.926L831.496 464.63L830.849 464.143L829.875 462.196H829.229L828.09 461.544V460.735L826.789 458.623L826.462 457.003L826.627 456.189L825.815 454.893V453.919L824.841 452.621L823.221 451.972L823.058 451.485L822.412 451.32L821.438 450.511L820.946 450.833L820.464 450.024L818.836 449.859L818.671 448.726L818.189 448.564L817.697 448.077L817.378 446.451L816.723 445.643L816.569 444.504L816.404 443.208L815.914 442.235L816.241 441.261L816.076 439.8L814.621 438.502L814.129 437.041L813.647 436.879L812.181 435.581L811.699 434.12L811.045 433.633L810.88 433.147L809.097 434.12L808.777 434.767L808.286 434.932L807.804 434.767L806.83 433.633L806.175 433.793L805.037 433.306L804.882 432.498L804.39 431.846L803.908 430.712L803.416 430.55L802.769 429.09L803.254 427.142L803.743 426.655L804.39 425.195L806.011 423.41L804.555 422.436L803.743 422.274L803.254 421.135L801.961 420.975L800.332 420.648L799.194 421.462L798.712 421.3L797.9 419.028L798.065 417.243L798.547 416.918L798.385 416.269L797.738 416.431L795.625 416.107L794.816 416.594L793.031 415.944L792.222 416.107L791.73 415.944L791.083 415.295L790.11 415.782L789.947 416.756L788.974 417.405L788.162 416.918H787.508L786.699 416.431L787.026 415.457L786.699 413.672L787.026 413.185L786.699 411.887L787.026 410.589L786.861 408.155L786.534 407.992L784.586 408.479L784.104 408.317L782.966 406.856L783.13 405.72L782.638 404.909L782.484 404.098L781.018 403.611L780.536 402.799L780.856 402.15L780.209 401.501L779.882 400.527L778.261 399.553L777.45 397.281L776.795 396.795L776.476 396.308L776.641 395.172L775.667 393.387L775.821 392.737L775.667 392.413L772.9 391.601L772.091 389.979L772.253 389.329L770.633 388.68L769.981 389.005L769.819 388.68L769.981 388.356L769.332 388.193L768.845 387.707L768.033 387.544L765.436 386.733L764.949 385.759L764.462 382.189L762.19 381.053L762.028 380.241L762.19 379.755L761.054 379.105L760.729 379.755L758.782 378.781L757.808 378.619L755.211 377.485V376.511L755.698 376.184L756.347 374.564L754.886 373.263V371.965L755.211 371.316V369.209L754.724 368.235L753.103 366.774L752.13 365.314H751.802L750.669 364.987L750.504 364.5L751.478 362.228L751.965 362.065L753.103 362.228L754.399 360.445L754.077 359.793L753.912 358.657L753.426 358.498L752.776 357.197L752.938 356.55L753.425 355.898L752.616 354.762L752.938 353.302L753.59 353.142L754.399 352.168L754.564 351.03L752.616 349.247V348.92H753.103L752.616 346.973L752.129 346.326L752.289 345.187L751.965 344.701H751.315L750.504 345.352L749.53 345.512L747.095 343.892L746.286 342.431L745.472 341.944L744.661 342.266L742.391 340.971L741.904 340.157L742.064 339.183L742.551 338.858V338.371L741.739 336.911L741.417 335.128L742.551 333.668L743.365 333.503L743.852 332.367L743.525 332.529L742.878 332.367L742.391 331.88L741.417 331.555L741.577 330.095L742.713 329.286L743.2 328.472L743.525 327.66H743.038L742.391 327.011V326.524L743.687 323.93L744.661 319.062L744.499 317.436L744.986 316.787L745.959 316.3L745.8 315.489L745.959 314.68L745.8 314.028L746.609 313.706L746.933 312.892L746.446 312.246L746.287 311.272L746.933 309.971L746.609 309.16L745.313 307.377L745.472 306.403L745.8 306.238L745.959 305.589L745.635 305.102L745.148 303.969L745.313 303.155L747.26 302.181L747.747 302.343L748.556 299.747L748.234 297.64L748.556 296.179L748.069 295.205L744.661 291.146L743.038 288.062L742.391 287.575H741.577L740.93 287.251L739.47 285.468L737.195 283.843L736.708 281.895L736.061 280.435L734.76 279.626L733.462 279.299L731.839 278.165L731.192 278L730.053 279.139L729.566 279.299L727.132 278.974L726.645 278.325L726.483 277.513L725.996 277.027L725.836 276.053L725.996 275.731L727.132 274.757V273.943L726.81 273.132L726.483 271.671L725.836 270.048L724.697 268.428L724.535 267.614L723.401 267.776L722.914 267.289H721.941L721.454 267.614L719.993 266.64L719.506 265.829L719.019 265.507L718.532 264.533V263.559L717.88 263.394L716.907 262.585V262.258L717.718 261.285V260.473L716.585 258.85L715.933 259.337H714.797L714.31 259.824L713.823 259.664L713.011 258.69L712.689 257.065H712.362L711.064 258.039L710.577 258.69L711.064 260.151L710.901 260.638L710.414 260.96L707.82 260.798L707.006 261.934L705.545 262.745L704.571 263.394H703.76L702.137 262.745L701.003 263.072L699.864 262.745L699.378 263.559L698.891 263.881H698.082L696.781 264.855L696.943 265.18L697.595 265.666L698.404 267.776L698.241 269.561L698.891 271.671L700.838 273.296L701.003 275.079L701.977 276.053L701.65 276.704L702.137 278.812L701.325 279.461L700.516 280.759L700.676 281.733L700.029 282.869L700.351 284.816L702.137 285.468L702.299 286.115L702.137 287.251L702.464 287.738V288.711L701.977 289.685V290.337L702.464 290.983L702.786 292.444L702.624 295.365L703.273 296.014L703.438 296.501L702.624 297.64L701.163 298.286L699.702 297.64L699.216 296.826H698.891L698.242 298.126L697.43 298.773L696.294 299.1L695.482 298.935L694.833 297.962L694.346 297.799L692.885 298.286L692.239 298.935L691.752 300.883L691.265 301.535L691.587 303.804L691.265 304.456L691.425 305.751L690.126 307.699L689.152 307.864L687.692 309.811L687.205 310.945L687.37 312.405L686.883 312.892L686.069 312.732L684.283 313.541L682.822 312.732L681.686 312.405L679.414 313.706L678.927 315.167L676.33 316.627L675.843 317.436L675.032 318.248L670.814 316.949L670.487 317.274L669.026 316.787L668.702 317.761L667.893 318.734L667.728 319.708L666.592 320.522L666.432 321.169L665.458 321.818L663.023 321.169L662.372 321.496L661.076 320.522L659.288 318.41L659.128 317.114L659.288 316.787L658.963 316.462L657.502 315.976L656.366 316.14L654.906 315.813L654.419 315.326L654.259 314.84L652.311 314.353L651.172 313.054H650.685L650.199 313.379L648.576 313.054L647.764 312.568L646.955 311.594L647.442 310.62L646.79 308.51L646.303 307.864H645.654L644.842 308.837H644.356L643.382 307.864L642.245 307.212L639.973 306.725L639.486 306.076H638.512L637.863 305.751L637.376 306.403L635.591 306.563L634.782 306.238L634.295 305.589H631.86L631.373 305.102L630.4 305.264L629.261 304.942L628.612 305.102L627.478 304.456L627.151 305.102L625.366 307.212L624.392 307.536L624.232 307.377L624.392 306.89L623.096 307.05L622.769 306.403L623.096 305.916L622.769 305.429L622.444 305.264L622.284 302.995L621.148 301.37L620.009 301.207L619.522 300.883V300.561L620.174 299.747V299.1L620.983 298.448V298.126L619.2 296.826L618.549 296.666L618.227 296.339V296.014L618.876 295.04L619.523 293.418L619.363 290.823L620.174 289.85L620.337 289.036L620.661 288.711V288.224L620.009 287.902L618.227 287.737L617.74 287.902L616.601 286.929L615.467 285.303V284.654L614.98 284.816L613.844 284.494L614.166 283.52L612.706 283.034L612.059 282.382L611.245 283.034H610.598L610.758 282.547L610.271 280.921L609.462 280.112H608.65L608.163 279.785L608.001 279.461L607.514 279.299L606.376 279.785L604.915 279.139H603.132L602.967 278.652L602.48 278.325L599.886 279.299L599.399 278.974L598.425 277.838H598.263L598.098 278.325L597.451 279.299H596.964L594.69 278.325L594.203 277.838L592.255 277.678L591.768 277.351L591.121 276.377L591.933 276.053L592.742 274.917L591.608 270.535L591.121 269.888V269.402L590.147 267.127V265.342L588.524 263.559L588.2 262.585L587.226 261.772L586.577 260.311H585.765L585.278 259.986L585.141 259.578L591.933 259.662L592.742 259.175L592.579 257.228L593.229 256.092V255.118L593.715 253.657L594.202 253.171L596.15 253.333L597.124 251.223L597.776 251.061L598.263 250.249L599.883 250.736L600.37 250.574L600.697 250.087L600.045 248.627L599.883 246.192L600.21 245.546L599.883 244.085V242.46L600.21 241.973L600.045 240.512L600.21 238.889L600.857 237.429H601.184L601.671 235.968L602.158 235.644L602.645 234.835V234.183L602.318 233.696L602.645 233.047L604.106 232.236L604.915 232.722L605.888 232.073L606.375 232.4L607.349 232.56L607.836 232.4L608.323 231.427L608.975 230.94L611.082 230.613L611.409 229.801L610.922 228.178L611.245 226.718L612.218 226.88L613.03 225.906L614.166 225.584L614.653 224.77L614.491 224.283L614.978 222.985L615.627 222.663L614.978 220.551L614.818 219.415L615.792 218.441L615.627 217.467L616.114 215.36L615.465 215.52L614.491 215.033L614.166 214.222L613.679 214.059V212.926H613.192L612.543 211.952L612.219 210.978L611.732 210.814L608.488 211.138L605.888 211.952L605.08 212.599L604.106 212.926H603.132L599.883 212.599H598.098L597.289 211.787L597.448 211.465L595.663 210.814L595.014 210.327L594.689 209.353L593.553 208.544L592.255 208.704L591.933 208.379L591.446 207.084V206.27L590.145 205.136L589.011 204.809L588.359 205.458H586.899L586.249 205.136H585.438L583.49 205.945L582.841 205.783L582.516 205.296V204.485L583.49 203.349L583.815 198.32L584.629 197.182L584.789 196.046L585.762 195.072L586.412 194.098L587.223 193.774L587.55 192.965L587.223 191.826L587.55 191.339L588.197 191.017L588.846 190.365L590.145 189.879L589.658 187.609L591.605 185.497L591.768 184.688L590.794 183.549L591.768 181.767V181.28L592.741 180.793L593.228 181.28L595.341 180.141L597.611 177.385H598.262L598.909 175.924L599.723 174.786L600.37 173.003L600.697 169.917L600.045 168.781L599.883 167.808L599.723 168.135L598.585 168.621L598.263 168.457V167.648L597.289 166.996L597.124 166.347L596.315 165.7L597.124 165.535L597.776 165.049L598.909 164.727L598.749 162.779L598.909 162.452L599.723 162.292L599.883 161.965L601.506 162.452L602.158 162.939L602.805 163.101L603.941 162.939L604.265 162.292L604.106 161.641L604.915 160.18H605.566L608.161 157.424L609.622 157.259L610.595 156.61L611.245 155.636L612.705 154.502L611.731 153.364L611.082 153.042L609.949 150.443L608.323 150.608V146.061L608.81 144.113L609.621 142.818L612.218 142.331L614.491 140.705L615.792 140.383L616.766 139.41L618.386 138.596L620.496 135.188L620.334 134.054L622.122 132.107L623.742 134.863L625.53 137.297L626.017 139.083L627.151 138.923L627.638 139.245L628.611 140.87L629.585 141.03L630.886 141.679L631.86 141.844L633.643 142.977L636.078 143.791H637.051L637.538 143.14L637.703 142.331L637.216 140.543L637.538 139.083L636.402 136.811V136.324L637.052 135.35L639.164 133.402H639.811L639.973 132.594L640.625 131.78L642.408 130.806V129.994L641.921 129.345L642.085 128.372L643.219 127.885L643.546 128.047L644.355 127.885L645.007 128.858L645.654 128.699L646.628 128.047L649.549 127.725L651.172 126.751L651.497 127.238L653.931 127.398L654.418 127.073L654.745 125.937L655.554 125.291L655.392 124.964L655.068 124.804L654.418 123.83L653.772 123.503H653.12L653.285 122.042L652.958 121.718L653.285 120.744L652.958 120.257L655.068 118.31L653.445 114.902L655.068 113.441L655.392 111.981L655.232 108.737L656.366 107.764L656.528 107.437L656.206 106.625L656.366 105.976L656.693 104.356L656.206 102.568L658.314 98.673V98.1861L657.667 97.0527L656.366 96.2387L656.206 95.7518H656.366L656.853 95.1052L656.693 93.4798L656.206 93.1577L656.041 92.8307L656.206 91.3701L655.879 90.8832V90.3963L658.8 90.2366L659.128 89.7497V88.776L658.314 86.9883L657.827 86.8285L657.502 86.1768L657.989 85.0408L659.615 83.5802V83.0934L659.128 81.7951L659.615 81.3082L661.722 80.4993L662.371 80.659L663.023 80.4993L663.183 79.0387L662.858 78.8739L662.696 78.5518L663.345 78.2247L664.971 75.9527L666.754 75.7929L667.565 75.4659L668.214 74.6569L664.484 72.0578L663.67 70.9243H663.183L662.049 70.5972L661.884 69.4637L662.858 68.1604L662.696 67.5163H662.371L661.076 66.3778L659.615 66.0507L659.774 65.5689L661.076 64.9222L661.885 63.7837L663.345 62.1558L665.131 59.5617L664.971 59.3969L664.806 58.2609L665.293 57.2872L665.458 55.9939L665.945 54.8554L665.293 53.0728L664.157 53.2376L663.345 52.5808L662.696 51.7718L661.562 51.29L660.748 50.4709L659.128 50.1515L657.989 51.29L656.366 50.6332L654.581 51.29L651.172 48.8506L650.363 48.5236L650.198 48.0417L647.115 45.9295L646.303 46.0943L646.628 48.8506L645.981 49.4973L645.167 50.9629L645.654 52.0989L645.329 52.7456L644.193 53.557L643.381 53.7192L642.572 54.2111L641.434 54.3658L641.272 57.6141L639.973 57.287L639.164 57.4518L638.999 57.7789L638.35 58.5878L638.025 59.8887L637.052 61.0265L635.756 60.6994L633.968 60.8616L630.722 58.7519L629.099 58.1053L628.125 58.26L627.8 58.5871H627.313L625.366 56.3126L624.716 55.1841L623.742 54.53L623.096 53.7185L620.983 54.2104L620.009 52.263L619.522 51.6088L619.36 50.9622L618.714 49.9884L619.2 49.177L618.714 47.3944L618.062 46.2558L616.114 44.6279L613.357 42.8452L611.897 42.3609L611.083 42.1987L609.462 40.733L608.488 40.4135L606.541 37.4923H605.24L604.753 36.8381L603.619 36.5186L602.967 34.8906L601.506 34.7359L601.02 34.0817L600.533 33.7622L599.883 32.9431H598.91L598.098 32.4614L595.663 33.108L593.394 31.65L592.907 30.9958L591.606 30.3491L591.446 29.7025L590.472 29.2131L588.687 29.0482L587.386 29.3753L585.116 29.2131L584.629 28.8936L583.818 28.5665L584.142 30.9957L583.977 31.4876L583.655 31.6498L582.354 31.8147L579.922 33.108L579.76 33.9169L579.435 34.0818L578.786 35.0555L578.948 35.8644L577.812 37.6572L577 39.6046L576.351 39.7594L575.213 38.9504L574.079 38.7856L573.592 38.4662L573.265 37.812L572.456 37.9768L572.131 38.4662L571.804 40.2513L570.995 42.034L570.671 42.1988L569.21 42.034L568.883 41.7069H566.613L563.691 41.0602L563.04 42.3611L562.393 42.5259L560.77 43.4996L561.092 44.4733L560.605 46.0936L559.958 46.4207L557.683 46.5755L557.524 45.9288L557.196 45.7666L556.223 45.6017L555.249 46.4207L554.115 48.3682L553.466 49.0148H553.141L552.979 49.6615L552.655 50.1508L551.518 51.1246L551.194 52.0983L550.867 55.0195L550.38 55.339L548.919 55.6661L547.785 55.339L546.971 53.8835L545.997 54.2106L545.188 53.8835L544.05 52.2631L543.403 51.9361L543.563 50.3157L543.89 50.1509L544.215 49.342L542.589 48.3682L542.429 47.8763L542.754 47.2297L543.563 46.5755L544.214 45.7666V45.4471L543.563 45.12L542.589 44.1463L541.293 44.4734L540.806 45.1201L539.021 46.2561L538.371 46.4209L538.047 46.2561L537.56 45.1201L534.963 44.4734L534.151 44.9552L533.989 45.2823H533.824V43.9815L533.178 42.8455L532.364 41.5523L532.042 41.3875L531.068 41.5523L530.416 42.1989L529.769 42.526L526.199 42.6807L525.874 43.4997L525.547 43.6544L522.952 41.8718H521.978L518.083 41.0603L516.46 39.2777L515.973 37.812L515.486 37.6573L512.24 37.1653L509.643 37.9767L507.209 37.8119L507.044 37.4923L508.182 30.3491L508.018 29.0483L508.182 27.9199L508.018 27.5928L506.557 26.6191L506.397 26.292L506.722 23.8602L507.695 22.7242L507.531 20.6119L506.722 20.1301L504.936 20.939L503.962 21.1039L502.661 20.4496L501.687 20.6118L501.201 20.2847L500.227 18.8292L498.766 18.6643L497.792 17.2088L496.331 15.908L495.198 16.2351L493.897 16.3898L492.763 17.044L491.302 16.8818L489.027 17.044L488.381 16.2351L487.407 16.0702L486.433 16.5545L484.485 16.7167L483.836 17.2087L483.025 18.1824L481.724 20.4494H481.402L480.59 19.638L479.941 19.3109L479.129 19.1561L477.506 18.6641L477.341 18.0175L477.993 16.7167L477.506 16.07H476.695L473.286 14.7692L473.124 14.4421L472.637 14.2874L472.312 14.6069L471.663 14.4421L471.176 15.2612L469.878 14.4421L471.011 12.6595L472.15 12.4947L471.663 10.712L472.15 10.2277L471.826 10.0655L470.365 10.8744L469.716 9.57356H466.956L466.469 7.95326L463.221 5.52402L462.412 0.655325L460.139 0Z" fill="#E6E9ED"/>
</svg>
